#!OML:ASF H:\Terrain\Patient Classification 1\PLAYGROUND\JustinFriday\JustinFriday.ASF
:FULLY-SPECIFIED
:DEGREES
3211
root 22.3018 18.0434 25.9444 7.19091 30.5905 1.9824
lowerback 10.6785 1.19991 -4.68893
upperback 5.06552 1.20107 -0.237563
thorax -0.787169 0.557773 2.25544
lowerneck -2.08252 -10.0694 -7.22331
upperneck 18.4636 -13.3582 2.38814
head 6.631 -6.70189 1.02364
rclavicle -3.72473e-014 1.5704e-014
rhumerus -43.7913 -31.7921 -58.7852
rradius 40.6415
rwrist -170.951
rhand -29.3925 24.4868
rfingers 7.12502
rthumb -2.73077 354.525
lclavicle -3.72473e-014 1.5704e-014
lhumerus -28.2438 20.2232 73.3187
lradius 27.16
lwrist -0.0923249
lhand -15.8845 0.265956
lfingers 7.12502
lthumb 10.3116 29.9932
rfemur -34.4953 -8.45491 26.6612
rtibia 16.7185
rfoot -1.65244 -10.6616
rtoes 0.346296
lfemur -1.67696 9.63638 -20.3601
ltibia 21.1788
lfoot -198.057 168.994
ltoes 1.61687
3212
root 22.3758 17.9717 26.0857 7.34731 30.9321 2.13007
lowerback 10.5794 1.15395 -4.46645
upperback 4.97724 1.16218 -0.30628
thorax -0.818496 0.544083 2.06428
lowerneck -2.55635 -10.0996 -6.90007
upperneck 19.2628 -13.3423 1.99535
head 6.91951 -6.68881 0.80944
rclavicle 8.46326e-014 -1.29707e-014
rhumerus -43.5862 -31.4788 -59.2527
rradius 40.5172
rwrist -170.932
rhand -29.3462 24.6582
rfingers 7.12502
rthumb -2.68609 354.695
lclavicle 8.46326e-014 -1.29707e-014
lhumerus -27.7548 19.5533 73.488
lradius 27.4778
lwrist -0.760372
lhand -14.664 0.454807
lfingers 7.12502
lthumb 11.4888 30.12
rfemur -34.5346 -10.0147 27.9512
rtibia 14.7299
rfoot -1.76344 -11.125
rtoes -14.6812
lfemur -0.952476 9.60603 -20.2966
ltibia 20.728
lfoot -198.331 168.66
ltoes 1.08255
3213
root 22.4481 17.9201 26.2216 7.38038 31.1917 2.27751
lowerback 10.4897 1.10947 -4.45456
upperback 4.95605 1.10942 -0.260492
thorax -0.788793 0.51714 2.11222
lowerneck -2.20606 -10.1247 -7.1845
upperneck 19.1918 -13.4503 2.43813
head 6.89309 -6.73127 1.00045
rclavicle 9.98831e-014 -1.4064e-014
rhumerus -43.2178 -30.9613 -59.7224
rradius 40.3671
rwrist -171.052
rhand -29.4684 24.5448
rfingers 7.12502
rthumb -2.80408 354.584
lclavicle 9.98831e-014 -1.4064e-014
lhumerus -27.0746 19.1273 73.8372
lradius 27.7165
lwrist -1.22924
lhand -14.2155 0.6559
lfingers 7.12502
lthumb 11.9213 30.2965
rfemur -34.3546 -10.2125 28.1183
rtibia 13.1455
rfoot -3.88629 -12.8891
rtoes -13.692
lfemur -0.125658 9.17835 -20.2986
ltibia 20.328
lfoot -198.581 168.662
ltoes 1.53325
3214
root 22.5175 17.9176 26.3533 7.72971 31.3196 3.03678
lowerback 10.3333 1.09539 -4.96801
upperback 4.93487 1.04968 -0.419344
thorax -0.72389 0.480695 2.2444
lowerneck -2.08916 -10.057 -7.10614
upperneck 19.4318 -13.4145 2.65034
head 6.95734 -6.69222 1.05905
rclavicle -1.75987e-014 1.12065e-014
rhumerus -42.9044 -30.5604 -60.2499
rradius 40.2376
rwrist -171.17
rhand -29.5625 24.3826
rfingers 7.12502
rthumb -2.89498 354.423
lclavicle -1.75987e-014 1.12065e-014
lhumerus -26.6511 18.5784 74.0503
lradius 28.1845
lwrist -1.42175
lhand -13.927 0.465758
lfingers 7.12502
lthumb 12.1995 30.09
rfemur -33.9853 -10.3798 27.7606
rtibia 11.9483
rfoot -5.9506 -14.6691
rtoes -12.9335
lfemur 0.676869 8.88969 -20.8718
ltibia 19.939
lfoot -198.63 168.474
ltoes 2.59385
3215
root 22.5854 17.877 26.4896 8.32862 31.4125 4.13196
lowerback 10.0771 1.05113 -5.70156
upperback 4.94003 0.939131 -0.734671
thorax -0.570842 0.414873 2.34395
lowerneck -2.15321 -10.0486 -7.17755
upperneck 19.8696 -13.4624 2.96342
head 7.1404 -6.69124 1.14883
rclavicle 1.71079e-014 -5.14355e-015
rhumerus -42.3656 -30.2596 -60.9738
rradius 40.0202
rwrist -171.064
rhand -29.7242 24.2122
rfingers 7.12502
rthumb -3.05112 354.254
lclavicle 1.71079e-014 -5.14355e-015
lhumerus -26.2907 17.9236 74.1198
lradius 28.7516
lwrist -1.33171
lhand -13.5334 0.127752
lfingers 7.12502
lthumb 12.579 29.7291
rfemur -33.9459 -10.4996 27.2698
rtibia 11.5062
rfoot -6.6982 -17.1324
rtoes -20.1929
lfemur 1.49373 9.00005 -21.6606
ltibia 19.4035
lfoot -198.243 167.808
ltoes 3.10332
